<?xml version="1.0" encoding="UTF-8"?>
<!DOCTYPE svg PUBLIC "-//W3C//DTD SVG 1.1//EN" "http://www.w3.org/Graphics/SVG/1.1/DTD/svg11.dtd">
<!-- Creator: CorelDRAW -->
<svg xmlns="http://www.w3.org/2000/svg" xml:space="preserve" width="210mm" height="297mm" style="shape-rendering:geometricPrecision; text-rendering:geometricPrecision; image-rendering:optimizeQuality; fill-rule:evenodd; clip-rule:evenodd"
viewBox="0 0 210 297">
 <defs>
  <style type="text/css">
   <![CDATA[
    .str0 {stroke:#1F1A17;stroke-width:0.0762}
    .fil0 {fill:#1F1A17}
   ]]>
  </style>
 </defs>
 <g id="Слой_x0020_1">
  <metadata id="CorelCorpID_0Corel-Layer"/>
  <path class="fil0 str0" d="M100 122c13.8048,0 25,11.1952 25,25 0,13.8048 -11.1952,25 -25,25 -13.8048,0 -25,-11.1952 -25,-25 0,-13.8048 11.1952,-25 25,-25zm16.0667 14.3146c0.3416,0.3569 0.5521,0.8707 0.5521,1.3768 0,0.5382 -0.2339,1.0758 -0.6153,1.4416l-19.5026 18.6166c-0.3591,0.3426 -0.8731,0.5533 -1.3794,0.5533 -0.5064,0 -1.0046,-0.2027 -1.3711,-0.545l-9.7514 -9.3085c-0.384,-0.3768 -0.6179,-0.906 -0.6179,-1.4441 0,-1.0987 0.8963,-1.9944 1.9948,-1.9944 0.4979,0 0.9891,0.1952 1.3557,0.53l8.3745 7.9935 18.1253 -17.3018c0.3726,-0.3247 0.8866,-0.5353 1.3928,-0.5353 0.5376,0 1.0758,0.2333 1.4415,0.6156l0.001 0.0017z"/>
 </g>
</svg>
