<?xml version="1.0" encoding="UTF-8"?>
<!DOCTYPE svg PUBLIC "-//W3C//DTD SVG 1.1//EN" "http://www.w3.org/Graphics/SVG/1.1/DTD/svg11.dtd">
<!-- Creator: CorelDRAW -->
<svg xmlns="http://www.w3.org/2000/svg" xml:space="preserve" width="417px" height="590px" style="shape-rendering:geometricPrecision; text-rendering:geometricPrecision; image-rendering:optimizeQuality; fill-rule:evenodd; clip-rule:evenodd"
viewBox="0 0 417 589.757">
 <defs>
  <style type="text/css">
   <![CDATA[
    .fil0 {fill:#282F34}
   ]]>
  </style>
 </defs>
 <g id="Слой_x0020_1">
  <metadata id="CorelCorpID_0Corel-Layer"/>
  <path class="fil0" d="M161.338 242.257c-6.83443,0 -12.4093,5.57469 -12.4093,12.4113l0 74.4631c0,6.83423 5.57489,12.4089 12.4115,12.4089l74.4625 0.00238286c6.83681,-0.00238286 12.4117,-5.57708 12.4117,-12.4137l0 -74.4607c0,-6.83662 -5.57489,-12.4113 -12.4117,-12.4113l-74.4647 0zm61.4668 30.4068c-0.846709,-0.849091 -3.0302,-1.11418 -4.24744,-0.572283 -1.17733,0.525221 -4.56397,4.33164 -5.34495,5.34713l-17.8881 23.2537 -12.9862 -12.9929c-0.825461,-0.776414 -2.00756,-1.24782 -3.17079,-1.24782 -2.56356,0 -4.65332,2.08977 -4.65332,4.65312 0,1.14218 0.436261,2.27027 1.19858,3.10526l16.4667 16.492c0.853659,0.846709 2.07328,1.35565 3.29053,1.35565 1.28992,0 2.52583,-0.562751 3.39597,-1.48929l24.7716 -30.9648c0.837376,-0.853659 1.48929,-2.13663 1.48929,-3.33501 0,-1.20076 -0.473791,-2.52126 -1.48929,-3.11698l-0.83261 -0.487691z"/>
 </g>
</svg>
