<?xml version="1.0" encoding="UTF-8"?>
<!DOCTYPE svg PUBLIC "-//W3C//DTD SVG 1.1//EN" "http://www.w3.org/Graphics/SVG/1.1/DTD/svg11.dtd">
<!-- Creator: CorelDRAW -->
<svg xmlns="http://www.w3.org/2000/svg" xml:space="preserve" width="210mm" height="297mm" style="shape-rendering:geometricPrecision; text-rendering:geometricPrecision; image-rendering:optimizeQuality; fill-rule:evenodd; clip-rule:evenodd"
viewBox="0 0 210 297">
 <defs>
  <style type="text/css">
   <![CDATA[
    .fil0 {fill:#131516}
   ]]>
  </style>
 </defs>
 <g id="Слой_x0020_1">
  <metadata id="CorelCorpID_0Corel-Layer"/>
  <path class="fil0" d="M81.2493 122c-3.4418,0 -6.2493,2.8074 -6.2493,6.2503l0 37.4994c0,3.4417 2.8075,6.2491 6.2504,6.2491l37.4991 0.0012c3.443,-0.0012 6.2505,-2.8086 6.2505,-6.2515l0 -37.4982c0,-3.4429 -2.8075,-6.2503 -6.2505,-6.2503l-37.5002 0zm30.9545 15.3128c-0.4264,-0.4276 -1.526,-0.5611 -2.139,-0.2882 -0.5929,0.2645 -2.2984,2.1814 -2.6917,2.6928l-9.0084 11.7105 -6.5398 -6.5432c-0.4157,-0.391 -1.011,-0.6284 -1.5968,-0.6284 -1.291,0 -2.3434,1.0524 -2.3434,2.3433 0,0.5752 0.2197,1.1433 0.6036,1.5638l8.2926 8.3053c0.4299,0.4264 1.0441,0.6827 1.6571,0.6827 0.6496,0 1.272,-0.2834 1.7102,-0.75l12.4749 -15.5938c0.4217,-0.4299 0.75,-1.076 0.75,-1.6795 0,-0.6047 -0.2386,-1.2697 -0.75,-1.5697l-0.4193 -0.2456z"/>
 </g>
</svg>
