<?xml version="1.0" encoding="UTF-8"?>
<!DOCTYPE svg PUBLIC "-//W3C//DTD SVG 1.1//EN" "http://www.w3.org/Graphics/SVG/1.1/DTD/svg11.dtd">
<!-- Creator: CorelDRAW -->
<svg xmlns="http://www.w3.org/2000/svg" xml:space="preserve" width="210mm" height="297mm" style="shape-rendering:geometricPrecision; text-rendering:geometricPrecision; image-rendering:optimizeQuality; fill-rule:evenodd; clip-rule:evenodd"
viewBox="0 0 210 297">
 <defs>
  <style type="text/css">
   <![CDATA[
    .fil0 {fill:#131516}
   ]]>
  </style>
 </defs>
 <g id="Слой_x0020_1">
  <metadata id="CorelCorpID_0Corel-Layer"/>
  <path class="fil0" d="M81.2499 122c-3.4423,0 -6.2499,2.8076 -6.2499,6.25l0 37.5c0,3.4423 2.8076,6.2499 6.25,6.2499l37.4999 0.0001c3.4424,-0.0001 6.2501,-2.8077 6.2501,-6.2501l0 -37.4999c0,-3.4424 -2.8077,-6.25 -6.2501,-6.25l-37.5 0zm7.5006 15.6935c0.222,0.3439 0.2931,0.5152 0.5795,0.8029l8.4605 8.5036 -8.2718 8.2687c-0.287,0.2873 -0.4581,0.6967 -0.4581,1.1062 0,0.8617 0.7027,1.5645 1.5644,1.5645 0.4095,0 0.8189,-0.1712 1.1061,-0.4584l8.2688 -8.2716 8.2688 8.2718c0.2874,0.287 0.6968,0.4582 1.1062,0.4582 0.8617,0 1.5645,-0.7028 1.5645,-1.5645 0,-0.4095 -0.1711,-0.8189 -0.4584,-1.1061l-8.2717 -8.2688 8.2719 -8.2687c0.2871,-0.2874 0.4582,-0.6968 0.4582,-1.1063 0,-0.8617 -0.7028,-1.5644 -1.5645,-1.5644 -0.4094,0 -0.8188,0.1711 -1.1061,0.4583l-8.2689 8.2717 -8.2687 -8.2718c-0.3507,-0.3244 -0.7674,-0.7872 -1.1542,-0.9346 -1.1519,-0.439 -2.743,0.6899 -1.8265,2.1093z"/>
 </g>
</svg>
